<?xml version="1.0" standalone="no"?><!DOCTYPE svg PUBLIC "-//W3C//DTD SVG 1.1//EN" "http://www.w3.org/Graphics/SVG/1.1/DTD/svg11.dtd"><svg t="1550045323786" class="icon" style="" viewBox="0 0 1024 1024" version="1.1" xmlns="http://www.w3.org/2000/svg" p-id="3287" xmlns:xlink="http://www.w3.org/1999/xlink" width="200" height="200"><defs><style type="text/css"></style></defs><path d="M798.890667 156.501333l-214.784-35.84A53.333333 53.333333 0 1 1 601.685333 15.445333l316.928 52.906667a42.666667 42.666667 0 0 1 35.072 34.986667l52.906667 316.928a53.333333 53.333333 0 1 1-105.301333 17.578666l-33.28-199.68-168.106667 168.192a384.085333 384.085333 0 1 1-74.24-76.629333l173.226667-173.226667z m-213.333334 279.893334A277.333333 277.333333 0 1 0 193.365333 828.586667a277.333333 277.333333 0 0 0 392.192-392.192z" fill="#467BF4" p-id="3288"></path></svg>
